<svg height="480pt" viewBox="-40 0 480 480.01571" width="480pt" xmlns="http://www.w3.org/2000/svg"><path d="m344.007812 320h16c17.671876 0 32-17.910156 32-40s-14.328124-40-32-40h-16zm0 0" fill="#ccac9b"/><path d="m56.007812 320h-16c-17.671874 0-32-17.910156-32-40s14.328126-40 32-40h16zm0 0" fill="#ccac9b"/><path d="m40.007812 184h320v128c0 88.367188-71.632812 160-160 160-88.367187 0-160-71.632812-160-160zm0 0" fill="#f5d7ca"/><path d="m360.007812 184c0-17.671875-71.632812-32-160-32-88.367187 0-160 14.328125-160 32s71.632813 32 160 32c88.367188 0 160-14.328125 160-32zm0 0" fill="#b9a095"/><g fill="#a8887a"><path d="m184.007812 368c-2.460937 0-4.785156-1.136719-6.300781-3.074219-1.515625-1.941406-2.054687-4.472656-1.460937-6.863281l16-64c.640625-2.828125 2.757812-5.09375 5.542968-5.914062 2.785157-.824219 5.792969-.070313 7.867188 1.960937 2.070312 2.03125 2.878906 5.027344 2.113281 7.828125l-12.761719 51.070312 19.054688-4.800781c4.273438-1.035156 8.582031 1.566407 9.648438 5.832031 1.070312 4.261719-1.503907 8.589844-5.757813 9.6875l-32 8c-.636719.171876-1.289063.261719-1.945313.273438zm0 0"/><path d="m128.007812 320c-29.902343 0-39.367187-36.503906-39.761718-38.0625-1.074219-4.289062 1.527344-8.632812 5.8125-9.710938 4.285156-1.074218 8.632812 1.527344 9.710937 5.8125.0625.257813 6.832031 25.960938 24.238281 25.960938s24.175782-25.703125 24.238282-25.960938c1.078125-4.285156 5.425781-6.886718 9.710937-5.8125 4.285157 1.078126 6.886719 5.421876 5.8125 9.710938-.394531 1.558594-9.859375 38.0625-39.761719 38.0625zm0 0"/><path d="m272.007812 320c-29.902343 0-39.367187-36.503906-39.761718-38.0625-1.074219-4.289062 1.527344-8.632812 5.8125-9.710938 4.285156-1.074218 8.632812 1.527344 9.710937 5.8125.0625.257813 6.832031 25.960938 24.238281 25.960938s24.175782-25.703125 24.238282-25.960938c1.078125-4.285156 5.425781-6.886718 9.710937-5.8125 4.285157 1.078126 6.886719 5.421876 5.8125 9.710938-.394531 1.558594-9.859375 38.0625-39.761719 38.0625zm0 0"/></g><path d="m128.007812 360c0 13.253906-10.746093 24-24 24-13.253906 0-24-10.746094-24-24s10.746094-24 24-24c13.253907 0 24 10.746094 24 24zm0 0" fill="#fdb5a6"/><path d="m320.007812 360c0 13.253906-10.746093 24-24 24-13.253906 0-24-10.746094-24-24s10.746094-24 24-24c13.253907 0 24 10.746094 24 24zm0 0" fill="#fdb5a6"/><path d="m232.007812 152v32h-64v-32c0-16-32-32-32-80 0-35.347656 28.652344-64 64-64 35.347657 0 64 28.652344 64 64 0 48-32 64-32 80zm0 0" fill="#ffd946"/><path d="m216.007812 72c0 8.835938-7.164062 16-16 16-8.835937 0-16-7.164062-16-16s7.164063-16 16-16c8.835938 0 16 7.164062 16 16zm0 0" fill="#f6aa54"/><path d="m184.007812 368c.652344 0 1.304688-.082031 1.9375-.238281l32-8c2.828126-.640625 5.09375-2.757813 5.914063-5.542969.824219-2.785156.070313-5.792969-1.960937-7.867188-2.03125-2.070312-5.027344-2.878906-7.828126-2.113281l-19.070312 4.761719 12.800781-51.054688c1.035157-4.273437-1.566406-8.582031-5.832031-9.648437-4.261719-1.070313-8.589844 1.503906-9.6875 5.757813l-16 64c-.597656 2.386718-.066406 4.914062 1.441406 6.855468 1.507813 1.941406 3.828125 3.078125 6.285156 3.089844zm0 0"/><path d="m128.007812 320c29.902344 0 39.375-36.503906 39.761719-38.054688 1.078125-4.285156-1.523437-8.636718-5.808593-9.714843-4.285157-1.078125-8.636719 1.523437-9.714844 5.808593-.0625.265626-6.832032 25.960938-24.238282 25.960938s-24.175781-25.695312-24.238281-25.960938c-1.078125-4.285156-5.429687-6.886718-9.714843-5.808593-4.285157 1.078125-6.886719 5.429687-5.808594 9.714843.386718 1.550782 9.859375 38.054688 39.761718 38.054688zm0 0"/><path d="m272.007812 320c29.902344 0 39.375-36.503906 39.761719-38.054688 1.078125-4.285156-1.523437-8.636718-5.808593-9.714843-4.285157-1.078125-8.636719 1.523437-9.714844 5.808593-.0625.265626-6.832032 25.960938-24.238282 25.960938s-24.175781-25.695312-24.238281-25.960938c-1.078125-4.285156-5.429687-6.886718-9.714843-5.808593-4.285157 1.078125-6.886719 5.429687-5.808594 9.714843.386718 1.550782 9.859375 38.054688 39.761718 38.054688zm0 0"/><path d="m32.808594 327.199219c7.8125 86.535156 80.347656 152.816406 167.230468 152.816406 86.886719 0 159.421876-66.28125 167.234376-152.816406 18.574218-4.128907 32.734374-23.695313 32.734374-47.199219 0-23.199219-13.769531-42.566406-32-47.03125v-48.96875c0-28.496094-85.496093-36.617188-125.113281-38.839844 1.480469-2.34375 3.335938-4.914062 5.289063-7.574218 15.324218-18.429688 23.75-41.621094 23.824218-65.585938 0-39.765625-32.234374-72-72-72-39.765624 0-72 32.234375-72 72 .070313 23.972656 8.496094 47.167969 23.824219 65.601562 1.953125 2.664063 3.808594 5.230469 5.289063 7.574219-39.617188 2.207031-125.113282 10.328125-125.113282 38.824219v48.96875c-18.230468 4.464844-31.9999995 23.832031-31.9999995 47.03125 0 23.503906 14.1601565 43.070312 32.8007815 47.199219zm335.199218-77.230469c10.535157 6.226562 16.710938 17.816406 16 30.03125.710938 12.214844-5.464843 23.804688-16 30.03125zm-224-177.96875c0-30.929688 25.070313-56 56-56 30.929688 0 56 25.070312 56 56-.035156 20.578125-7.382812 40.476562-20.734374 56.136719-6.1875 6.5625-10.132813 14.917969-11.265626 23.863281v24h-16v-16c4.417969 0 8-3.582031 8-8s-3.582031-8-8-8v-56c0-4.417969-3.582031-8-8-8-4.417968 0-8-3.582031-8-8s3.582032-8 8-8c4.417969 0 8 3.582031 8 8s3.582032 8 8 8c4.417969 0 8-3.582031 8-8 .050782-12.21875-9.085937-22.523438-21.222656-23.9375-12.132812-1.414062-23.394531 6.511719-26.15625 18.414062-2.761718 11.902344 3.859375 23.980469 15.378906 28.050782v49.472656c-4.417968 0-8 3.582031-8 8s3.582032 8 8 8v16h-16v-24c-1.132812-8.945312-5.078124-17.300781-11.265624-23.863281-13.351563-15.660157-20.699219-35.558594-20.734376-56.136719zm-96 112.304688c2.839844-6.472657 38.398438-19.433594 112-23.257813v22.953125c0 4.417969 3.582032 8 8 8h64c4.417969 0 8-3.582031 8-8v-22.953125c73.855469 3.832031 109.457032 16.863281 112.054688 22.570313-3.535156 8.75-57.359375 24.382812-152.054688 24.382812-94.398437 0-148.207031-15.542969-152-23.542969zm0 18.589843c40.871094 20.792969 146.472657 21.105469 152 21.105469 5.527344 0 111.128907-.3125 152-21.105469v109.105469c0 83.949219-68.050781 152-152 152-83.945312 0-152-68.050781-152-152zm-16 47.074219v60.0625c-10.535156-6.226562-16.710937-17.816406-16-30.03125-.710937-12.214844 5.464844-23.804688 16-30.03125zm0 0"/></svg>