<svg height="480pt" viewBox="-40 0 480 480.01571" width="480pt" xmlns="http://www.w3.org/2000/svg"><path d="m344.007812 320h16c17.671876 0 32-17.910156 32-40s-14.328124-40-32-40h-16zm0 0" fill="#ccac9b"/><path d="m56.007812 320h-16c-17.671874 0-32-17.910156-32-40s14.328126-40 32-40h16zm0 0" fill="#ccac9b"/><path d="m40.007812 184h320v128c0 88.367188-71.632812 160-160 160-88.367187 0-160-71.632812-160-160zm0 0" fill="#f5d7ca"/><path d="m360.007812 184c0-17.671875-71.632812-32-160-32-88.367187 0-160 14.328125-160 32s71.632813 32 160 32c88.367188 0 160-14.328125 160-32zm0 0" fill="#b9a095"/><g fill="#a8887a"><path d="m184.007812 368c-2.460937 0-4.785156-1.136719-6.300781-3.074219-1.515625-1.941406-2.054687-4.472656-1.460937-6.863281l16-64c.640625-2.828125 2.757812-5.09375 5.542968-5.914062 2.785157-.824219 5.792969-.070313 7.867188 1.960937 2.070312 2.03125 2.878906 5.027344 2.113281 7.828125l-12.761719 51.070312 19.054688-4.800781c4.273438-1.035156 8.582031 1.566407 9.648438 5.832031 1.070312 4.261719-1.503907 8.589844-5.757813 9.6875l-32 8c-.636719.171876-1.289063.261719-1.945313.273438zm0 0"/><path d="m128.007812 320c-29.902343 0-39.367187-36.503906-39.761718-38.0625-1.074219-4.289062 1.527344-8.632812 5.8125-9.710938 4.285156-1.074218 8.632812 1.527344 9.710937 5.8125.0625.257813 6.832031 25.960938 24.238281 25.960938s24.175782-25.703125 24.238282-25.960938c1.078125-4.285156 5.425781-6.886718 9.710937-5.8125 4.285157 1.078126 6.886719 5.421876 5.8125 9.710938-.394531 1.558594-9.859375 38.0625-39.761719 38.0625zm0 0"/><path d="m272.007812 320c-29.902343 0-39.367187-36.503906-39.761718-38.0625-1.074219-4.289062 1.527344-8.632812 5.8125-9.710938 4.285156-1.074218 8.632812 1.527344 9.710937 5.8125.0625.257813 6.832031 25.960938 24.238281 25.960938s24.175782-25.703125 24.238282-25.960938c1.078125-4.285156 5.425781-6.886718 9.710937-5.8125 4.285157 1.078126 6.886719 5.421876 5.8125 9.710938-.394531 1.558594-9.859375 38.0625-39.761719 38.0625zm0 0"/></g><path d="m128.007812 360c0 13.253906-10.746093 24-24 24-13.253906 0-24-10.746094-24-24s10.746094-24 24-24c13.253907 0 24 10.746094 24 24zm0 0" fill="#fdb5a6"/><path d="m320.007812 360c0 13.253906-10.746093 24-24 24-13.253906 0-24-10.746094-24-24s10.746094-24 24-24c13.253907 0 24 10.746094 24 24zm0 0" fill="#fdb5a6"/><path d="m279.9375 80h-20.570312c-3.398438-.070312-6.414063-2.207031-7.605469-5.390625l-.042969-.105469c-1.382812-3.097656-.75-6.722656 1.601562-9.167968l14.519532-14.535157c3.152344-3.15625 3.152344-8.269531 0-11.425781l-11.199219-11.199219c-3.15625-3.152343-8.269531-3.152343-11.425781 0l-14.542969 14.527344c-2.445313 2.351563-6.070313 2.988281-9.167969 1.601563h-.105468c-3.203126-1.207032-5.34375-4.25-5.390626-7.671876v-20.5625c0-4.457031-3.613281-8.070312-8.070312-8.070312h-15.859375c-4.457031 0-8.070313 3.613281-8.070313 8.070312v20.5625c-.070312 3.402344-2.207031 6.417969-5.390624 7.613282h-.105469c-3.097657 1.386718-6.722657.753906-9.167969-1.597656l-14.535156-14.480469c-3.15625-3.152344-8.269532-3.152344-11.425782 0l-11.199218 11.199219c-3.152344 3.15625-3.152344 8.269531 0 11.425781l14.535156 14.535156c2.355469 2.445313 2.988281 6.070313 1.601562 9.167969l-.039062.105468c-1.195312 3.195313-4.222656 5.335938-7.632812 5.398438h-20.570313c-4.457031 0-8.070313 3.613281-8.070313 8.070312v15.859376c0 4.457031 3.613282 8.070312 8.070313 8.070312h20.570313c3.398437.070312 6.414062 2.207031 7.605468 5.390625l.042969.105469c1.382813 3.097656.75 6.722656-1.601563 9.167968l-14.519531 14.535157c-3.152343 3.15625-3.152343 8.269531 0 11.425781l11.199219 11.199219c3.15625 3.152343 8.269531 3.152343 11.425781 0l14.535157-14.535157c2.445312-2.355468 6.070312-2.988281 9.167968-1.601562l.105469.039062c3.195313 1.195313 5.335937 4.222657 5.398437 7.632813v20.570313c0 4.457031 3.613282 8.070312 8.070313 8.070312h15.859375c4.457031 0 8.070312-3.613281 8.070312-8.070312v-20.570313c.070313-3.398437 2.207032-6.414063 5.390626-7.605469l.105468-.042968c3.097656-1.382813 6.722656-.75 9.167969 1.601562l14.535156 14.535156c3.15625 3.152344 8.269531 3.152344 11.425781 0l11.199219-11.199218c3.152344-3.15625 3.152344-8.269532 0-11.425782l-14.535156-14.535156c-2.351563-2.445312-2.988281-6.070312-1.601563-9.167969l.039063-.105469c1.191406-3.199218 4.21875-5.347656 7.632813-5.414062h20.570312c4.457031 0 8.070312-3.613281 8.070312-8.070312v-15.859376c0-4.457031-3.613281-8.070312-8.070312-8.070312zm-79.929688 40c-13.253906 0-24-10.746094-24-24s10.746094-24 24-24c13.253907 0 24 10.746094 24 24s-10.746093 24-24 24zm0 0" fill="#ffd946"/><path d="m192.246094 294.054688-16 64c-.597656 2.390624-.0625 4.925781 1.457031 6.867187 1.515625 1.941406 3.839844 3.078125 6.304687 3.078125.65625 0 1.308594-.082031 1.945313-.238281l32-8c2.789063-.679688 5.003906-2.800781 5.796875-5.5625.796875-2.757813.050781-5.730469-1.953125-7.789063-2-2.058594-4.953125-2.886718-7.734375-2.171875l-19.054688 4.761719 12.761719-51.054688c.714844-2.78125-.113281-5.734374-2.171875-7.734374-2.058594-2.003907-5.03125-2.75-7.789062-1.953126-2.761719.792969-4.882813 3.007813-5.5625 5.796876zm0 0"/><path d="m161.96875 272.257812c-4.28125-1.085937-8.632812 1.5-9.722656 5.78125-.0625.265626-6.832032 25.960938-24.238282 25.960938s-24.175781-25.695312-24.238281-25.960938c-1.078125-4.285156-5.429687-6.886718-9.714843-5.808593-4.285157 1.078125-6.886719 5.429687-5.808594 9.714843.394531 1.550782 9.859375 38.054688 39.761718 38.054688 29.902344 0 39.367188-36.503906 39.761719-38.054688 1.0625-4.277343-1.53125-8.609374-5.800781-9.6875zm0 0"/><path d="m272.007812 320c29.902344 0 39.367188-36.503906 39.761719-38.054688 1.078125-4.285156-1.523437-8.636718-5.808593-9.714843-4.285157-1.078125-8.636719 1.523437-9.714844 5.808593-.0625.265626-6.832032 25.960938-24.238282 25.960938s-24.175781-25.695312-24.238281-25.960938c-1.078125-4.285156-5.429687-6.886718-9.714843-5.808593-4.285157 1.078125-6.886719 5.429687-5.808594 9.714843.394531 1.550782 9.859375 38.054688 39.761718 38.054688zm0 0"/><path d="m200.007812 128c17.671876 0 32-14.328125 32-32s-14.328124-32-32-32c-17.671874 0-32 14.328125-32 32s14.328126 32 32 32zm0-48c8.835938 0 16 7.164062 16 16s-7.164062 16-16 16c-8.835937 0-16-7.164062-16-16s7.164063-16 16-16zm0 0"/><path d="m368.007812 232.96875v-48.96875c0-21.191406-46.167968-31.199219-89.910156-36 0-.375.101563-.734375.101563-1.113281.011719-4.261719-1.683594-8.355469-4.703125-11.367188l-14.472656-14.800781c0-.070312.320312-.671875.34375-.742188h20.570312c8.863281-.007812 16.046875-7.183593 16.070312-16.046874v-15.859376c-.007812-8.871093-7.199218-16.0625-16.070312-16.070312h-20.457031l-.519531-1.03125 14.527343-14.535156c6.277344-6.28125 6.277344-16.457032 0-22.738282l-11.199219-11.199218c-6.363281-6.078125-16.375-6.078125-22.738281 0l-14.800781 14.472656c-.070312 0-.671875-.320312-.742188-.34375v-20.554688c-.007812-8.871093-7.199218-16.0624995-16.070312-16.070312h-15.859375c-8.871094.0078125-16.0625 7.199219-16.070313 16.070312v20.457032l-1.03125.519531-14.511718-14.527344c-6.363282-6.078125-16.375-6.078125-22.738282 0l-11.199218 11.199219c-6.277344 6.28125-6.277344 16.457031 0 22.738281l14.472656 14.800781c0 .070313-.320312.671876-.34375.742188h-20.578125c-8.871094.007812-16.0625 7.199219-16.070313 16.070312v15.859376c.007813 8.871093 7.199219 16.0625 16.070313 16.070312h20.457031l.519532 1.03125-14.527344 14.535156c-3.027344 3.007813-4.722656 7.101563-4.710938 11.371094 0 .375.078125.734375.101563 1.109375-43.742188 4.753906-89.910157 14.761719-89.910157 35.953125v48.96875c-18.230468 4.464844-31.9999995 23.832031-31.9999995 47.03125 0 23.503906 14.1601565 43.070312 32.8007815 47.199219 7.8125 86.535156 80.347656 152.816406 167.230468 152.816406 86.886719 0 159.421876-66.28125 167.234376-152.816406 18.574218-4.128907 32.734374-23.695313 32.734374-47.199219 0-23.199219-13.769531-42.566406-32-47.03125zm-336 77.0625c-10.535156-6.226562-16.710937-17.816406-16-30.03125-.710937-12.214844 5.464844-23.804688 16-30.03125zm120.359376-177.710938c4.539062-4.8125 5.832031-11.839843 3.300781-17.953124-2.527344-6.109376-8.410157-10.167969-15.019531-10.367188l-20.640626-.070312.070313-15.929688h20.570313c6.609374-.199219 12.492187-4.257812 15.019531-10.367188 2.53125-6.113281 1.238281-13.140624-3.300781-17.953124l-14.527344-14.648438 11.3125-11.199219 14.535156 14.527344c4.8125 4.539063 11.839844 5.832031 17.953125 3.300781 6.109375-2.527344 10.167969-8.410156 10.367187-15.019531l.070313-20.640625 15.929687.070312v20.570313c.199219 6.609375 4.257813 12.492187 10.367188 15.019531 6.113281 2.53125 13.140625 1.238282 17.953125-3.300781l14.648437-14.527344 11.199219 11.3125-14.527343 14.535157c-4.539063 4.8125-5.832032 11.839843-3.300782 17.953124 2.527344 6.109376 8.410156 10.167969 15.019532 10.367188l20.640624.070312v15.859376l-20.640624.070312c-6.609376.199219-12.492188 4.257812-15.019532 10.367188-2.53125 6.113281-1.238281 13.140624 3.300782 17.953124l14.527343 14.648438-11.3125 11.199219-14.535156-14.527344c-4.8125-4.539063-11.839844-5.832031-17.953125-3.300781-6.109375 2.527344-10.167969 8.410156-10.367188 15.019531l-.070312 20.640625-15.929688-.070312v-20.570313c-.082031-6.679687-4.21875-12.636719-10.449218-15.046875-2.070313-.859375-4.292969-1.308594-6.535156-1.3125-4.242188-.019531-8.320313 1.652344-11.335938 4.640625l-14.648438 14.527344-11.199218-11.3125zm199.640624 179.679688c0 83.949219-68.050781 152-152 152-83.945312 0-152-68.050781-152-152v-109.105469c40.871094 20.792969 146.472657 21.105469 152 21.105469 5.527344 0 111.128907-.3125 152-21.105469zm-152-104c-94.398437 0-148.183593-15.535156-152-23.542969v-.160156c2.097657-4.648437 25.128907-15.535156 83.382813-21.152344l6.335937 6.335938c6.363282 6.070312 16.375 6.070312 22.738282 0l14.800781-14.472657c.070313 0 .671875.320313.742187.34375v20.570313c.003907 8.875 7.195313 16.070313 16.070313 16.078125h15.859375c8.871094-.007812 16.0625-7.199219 16.070312-16.070312v-20.457032l1.03125-.519531 14.535157 14.527344c6.367187 6.070312 16.375 6.070312 22.738281 0l6.335938-6.34375c58.617187 5.648437 81.597656 16.625 83.4375 20.472656-3.558594 8.757813-57.390626 24.390625-152.078126 24.390625zm168 102.03125v-60.0625c10.535157 6.226562 16.710938 17.816406 16 30.03125.710938 12.214844-5.464843 23.804688-16 30.03125zm0 0"/></svg>