<svg id="Capa_1" enable-background="new 0 0 512 512" height="512" viewBox="0 0 512 512" width="512" xmlns="http://www.w3.org/2000/svg"><g><g><g><path d="m269.311 225.513-62.961 63.022c-10.678 10.704-28.401 9.413-37.404-2.793-7.318-9.922-5.924-23.804 2.793-32.521l63.969-63.969 23.107-23.107c34.492-34.492 90.415-34.492 124.907 0 10.734 10.734 10.734 28.137 0 38.872l-5.148 5.148c-27.489 27.489-69.354 34.592-104.371 17.708z" fill="#ffcec0"/></g><g><path d="m32.728 186.192-25.228-24.473 81.097-81.097 54.197 52.343 65.676 24.615 115.999 115.999c8.286 8.286 8.107 21.841-.543 29.89-8.235 7.672-21.214 7.084-29.174-.876l18.06 18.06c8.286 8.286 8.107 21.828-.543 29.89-8.235 7.672-21.208 7.078-29.168-.882l-7.525-7.525c4.054 4.054 6.08 9.367 6.074 14.68.006 5.313-2.027 10.633-6.08 14.686-8.107 8.107-21.252 8.107-29.36 0l-15.786-15.786c8.286 8.286 8.107 21.841-.543 29.89-8.235 7.672-21.208 7.091-29.174-.876l-131.714-129.436c-.32-.307-.633-.62-.953-.94-18.516-18.515-30.856-42.325-35.312-68.162z" fill="#ba5d4f"/><path d="m323.93 303.465c8.65-8.05 8.83-21.6.54-29.89l-116-115.99-65.68-24.62-9.07-8.76c-12.26 4.23-23.77 11.24-33.56 21.03-5.36 5.37-8.05 12.4-8.05 19.43 0 7.04 2.69 14.07 8.05 19.44l5.15 5.15c26.169 26.16 65.361 33.86 99.278 19.968.785-.321 2.949-1.321 5.062-2.31 2.96-1.385 6.47-.768 8.78 1.545 3.028 3.031 3.027 7.943-.003 10.972l-80.267 80.274c-4.12 4.11-7.27 9.06-9.3 14.43l71.84 70.6c7.97 7.96 20.94 8.54 29.18.87 8.65-8.05 8.83-21.6.54-29.89l15.79 15.79c8.11 8.1 21.25 8.1 29.36 0 4.05-4.06 6.08-9.38 6.08-14.69s-2.02-10.63-6.08-14.68l7.53 7.53c7.96 7.96 20.93 8.55 29.17.88 8.65-8.06 8.83-21.61.54-29.89l-18.06-18.06c7.96 7.961 20.94 8.551 29.18.871z" fill="#a34f41"/></g><g><path d="m444.039 226.457 60.461-59.707-81.097-81.097-89.431 87.577-65.676 24.615-115.998 116c-8.286 8.286-8.107 21.841.543 29.89 8.235 7.672 21.214 7.084 29.174-.876l-18.06 18.06c-8.286 8.286-8.107 21.828.543 29.89 8.235 7.672 21.208 7.078 29.168-.882l7.525-7.525c-4.054 4.054-6.08 9.367-6.074 14.68-.006 5.313 2.027 10.633 6.08 14.686 8.107 8.107 21.253 8.107 29.36 0l15.786-15.786c-8.286 8.286-8.107 21.841.543 29.89 8.235 7.672 21.208 7.091 29.174-.876l131.714-129.436c.32-.307.633-.62.953-.94 18.516-18.516 30.855-42.326 35.312-68.163z" fill="#ffcec0"/><path d="m485.56 147.815-26.341 26.019c-20.758-20.758-41.515-41.515-62.272-62.272l-32.654 31.977c18.258 18.258 36.516 36.516 54.773 54.773 4.326 4.326 5.997 10.598 4.556 16.544-.006.025-.012.05-.018.075-5.388 22.971-17.077 44.027-33.814 60.755-.32.32-.63.64-.95.94l-131.71 129.44c-4.57 4.56-10.78 6.7-16.8 6.25.39 4.99 2.58 9.86 6.56 13.56 8.23 7.67 21.21 7.09 29.17-.88l131.71-129.43c.32-.31.64-.63.96-.94 18.51-18.52 30.85-42.33 35.31-68.17l60.46-59.7z" fill="#fdb0a0"/><g><path d="m331.08 254.505c-9 12.2-26.73 13.5-37.41 2.79l-42.39-42.43 17.02-17.02 26.08-9.77 33.91 33.91c8.71 8.72 10.11 22.6 2.79 32.52z" fill="#fdb0a0"/></g></g><g><path d="m214.571 178.132 62.961 63.022c10.678 10.704 28.401 9.413 37.404-2.793 7.318-9.922 5.924-23.804-2.793-32.521l-63.969-63.969-23.107-23.107c-34.492-34.492-90.415-34.492-124.907 0-10.734 10.734-10.734 28.137 0 38.871l5.148 5.148c27.489 27.489 69.354 34.592 104.371 17.708z" fill="#c86f5c"/></g></g><path d="m490.077 197.184-11.541 11.541c-3.905 3.905-10.237 3.905-14.142 0l-82.742-82.742c-3.905-3.905-3.905-10.237 0-14.142l11.541-11.541c3.905-3.905 10.237-3.905 14.142 0l82.742 82.742c3.905 3.905 3.905 10.237 0 14.142z" fill="#64b9fc"/><path d="m490.08 197.185-11.54 11.54c-3.91 3.91-10.24 3.91-14.15 0l-20.27-20.27c3.91 3.9 10.24 3.9 14.14 0l11.54-11.54c3.79-3.79 3.91-9.85.36-13.78l19.92 19.91c3.9 3.9 3.9 10.23 0 14.14z" fill="#31a7fb"/><g><path d="m103.716 105.647c-3.095 2.414-6.06 5.013-8.86 7.813-2.929 2.93-2.929 7.678 0 10.607 1.465 1.464 3.385 2.196 5.304 2.196s3.839-.732 5.304-2.196c10.886-10.887 24.572-18.399 39.578-21.726 4.044-.896 6.596-4.901 5.699-8.945-.896-4.043-4.898-6.595-8.945-5.699-8.878 1.968-17.366 5.172-25.247 9.49l-22.74-21.964c-2.978-2.878-7.727-2.797-10.604.185-2.878 2.979-2.795 7.727.185 10.604z"/><path d="m158.788 355.474c-5.473 5.474-8.55 12.889-8.413 20.628.138 7.737 3.338 14.908 9.011 20.191 7.79 7.256 18.972 9.134 28.68 5.763.977 5.502 3.586 10.769 7.827 15.012 10.403 10.401 26.959 10.984 38.052 1.751 1.421 4.749 4.087 9.057 7.829 12.542 5.398 5.028 12.242 7.521 19.111 7.521 7.363-.001 14.756-2.864 20.429-8.537l97.919-96.219c2.954-2.903 2.996-7.651.093-10.606-2.903-2.953-7.652-2.994-10.606-.093l-97.966 96.265c-5.184 5.186-13.598 5.496-18.757.693-2.666-2.483-4.171-5.851-4.235-9.48-.064-3.634 1.314-7.049 3.884-9.617.372-.372 78.853-78.853 78.853-78.853 2.929-2.93 2.929-7.678 0-10.607-2.93-2.928-7.678-2.928-10.607 0l-94.634 94.634c-2.505 2.506-5.835 3.885-9.378 3.885s-6.873-1.379-9.378-3.884c-5.172-5.172-5.172-13.587 0-18.758.236-.236 94.634-94.634 94.634-94.634 2.929-2.93 2.929-7.678 0-10.607-2.93-2.928-7.678-2.928-10.607 0l-102.165 102.161c-5.184 5.186-13.599 5.496-18.756.692-2.667-2.484-4.171-5.851-4.235-9.481-.064-3.633 1.314-7.048 3.883-9.615l92.924-92.924c2.929-2.93 2.929-7.678 0-10.607-2.93-2.928-7.678-2.928-10.607 0 0 0-74.613 74.614-74.865 74.865-5.183 5.185-13.598 5.496-18.755.692-2.667-2.484-4.172-5.852-4.236-9.481-.064-3.633 1.314-7.048 3.884-9.616l93.67-93.67 20.952 20.972c6.073 6.088 14.274 9.466 22.804 9.466.799 0 1.601-.029 2.403-.089 9.377-.699 17.957-5.442 23.543-13.015 9.377-12.714 7.862-30.89-3.525-42.277l-39.918-39.917c20.123-12.981 44.987-16.299 67.779-9.198l-5.491 5.361c-2.964 2.894-3.021 7.643-.127 10.605 1.47 1.506 3.417 2.261 5.367 2.261 1.889 0 3.78-.71 5.238-2.134l31.513-30.769 13.183 13.183c2.929 2.929 7.678 2.93 10.606.001 2.93-2.929 2.93-7.678.001-10.606l-18.642-18.644c-.976-.975-.976-2.561 0-3.535l11.541-11.541c.975-.977 2.562-.975 3.534 0l82.742 82.742c.976.975.976 2.561 0 3.535l-11.54 11.541c-.975.975-2.563.975-3.536 0l-38.695-38.696c-2.93-2.927-7.678-2.929-10.607 0-2.929 2.93-2.929 7.678 0 10.607l32.165 32.165-13.796 13.622c-1.114 1.1-1.855 2.521-2.122 4.063-4.284 24.873-16.08 47.355-34.12 65.026l-8.177 8.035c-2.954 2.903-2.996 7.652-.093 10.606 1.469 1.494 3.408 2.243 5.35 2.243 1.897 0 3.797-.716 5.257-2.15l8.168-8.027c19.717-19.313 32.809-43.744 37.963-70.788l12.887-12.726c2.392 1.149 4.987 1.742 7.588 1.742 4.481 0 8.963-1.706 12.375-5.116l11.541-11.541c5.31-5.31 6.468-13.204 3.514-19.663l10.875-10.738c2.947-2.911 2.978-7.659.067-10.606-2.911-2.948-7.66-2.976-10.606-.067l-10.151 10.024-70.549-70.548 10.11-9.871c2.964-2.894 3.021-7.642.127-10.605-2.894-2.965-7.643-3.021-10.605-.127l-11.194 10.927c-6.346-2.624-13.931-1.366-19.08 3.783l-11.541 11.541c-4.99 4.991-6.314 12.265-4.005 18.485l-15.098 14.741c-29.96-12.132-64.034-8.341-90.528 10.044l-36.347-36.346c-13.612-13.613-30.767-22.721-49.611-26.338-4.07-.788-7.998 1.884-8.779 5.951-.781 4.068 1.884 7.999 5.951 8.779 15.886 3.05 30.351 10.731 41.832 22.214l87.075 87.075c6.186 6.186 7.071 15.973 2.061 22.766-2.986 4.05-7.573 6.587-12.585 6.96-5.022.38-9.925-1.454-13.478-5.016l-62.96-63.021c-2.255-2.256-5.689-2.842-8.563-1.455l-4.894 2.358c-32.104 15.481-70.608 8.947-95.809-16.255-2.929-2.929-7.678-2.93-10.606-.001-2.93 2.93-2.93 7.678-.001 10.606 29.707 29.708 75.089 37.409 112.931 19.161l.095-.045 27.637 27.664-11.515 11.515-10.023-10.023c-2.93-2.928-7.678-2.928-10.607 0-2.929 2.93-2.929 7.678 0 10.607l10.024 10.023-18.756 18.757-10.994-10.994c-2.93-2.928-7.678-2.928-10.607 0-2.929 2.93-2.929 7.678 0 10.607l10.994 10.994-18.756 18.757-10.995-10.995c-2.93-2.928-7.678-2.928-10.607 0-2.929 2.93-2.929 7.678 0 10.607l10.995 10.995-12.825 12.825c-2.248 2.248-4.061 4.803-5.416 7.567l-67.341-66.173c-18.031-17.661-29.827-40.144-34.111-65.018-.271-1.565-1.029-3.005-2.17-4.11l-25.233-24.474c-2.976-2.881-7.724-2.808-10.608.165-2.884 2.974-2.812 7.722.162 10.605l23.506 22.798c5.159 27.031 18.248 51.449 37.947 70.744l75.746 74.432c1.268 5.383 4.091 10.274 8.251 14.148 3.222 3 7.022 5.082 11.06 6.251z"/></g></g></svg>