<svg id="Filled-Outline" enable-background="new 0 0 512 512" height="512" viewBox="0 0 512 512" width="512" xmlns="http://www.w3.org/2000/svg"><g><g><path d="m392.0000916 135.9999847h.0000305c13.2548217.0000153 23.9999695-10.74514 23.9999695-23.9999618v-.0000534c0-13.2548142-10.7451478-23.9999695-23.9999695-23.9999695h-32.0000305c-13.2548218 0-24-10.7451553-24-23.9999771v-.0000229l-23.4666748 17.6000061c-5.3718567 4.0288925-8.5333252 10.3518372-8.5333252 17.0666504v.0000305c0 11.7820663 9.5512695 21.333313 21.333313 21.333313h10.666687v.0000153c0 8.8365479 7.1634521 15.9999847 16 15.9999695h8" fill="#b71e71"/><path d="m472 336-16 24h-8-24l-8-8h-80l-56 32 32 48h16v16l-12.6862793 12.6865234c-7.2441406 7.2436524-11.3137207 17.0688477-11.3137207 27.3134766h32v-16l24-8 8-24h48l-8 32v16h40v-4.6865234c0-7.2436523-2.8776855-14.1914063-8-19.3134766l16-40-32-16v-16h40l24-32v-16zm-144 80-8-24 6.5500488-2.1801758 19.0599365-6.3598633c-3.6700439 6.8300782-2.6199951 15.5302735 3.1400147 21.2900391 1.1899414 1.1899414 2.5100098 2.2099609 3.9199219 3.0297852z" fill="#fad6c6"/><path d="m96 192v16h-32l-16-32v-16h-15.9999962l-8.0000038 16v24l24 40h48l16 24-32 24v56l-8.8210831 2.9403687c-9.064701 3.0215454-15.1789169 11.5045776-15.1789169 21.0596008v.0000305h56v-48l48-24 48 8v48h56v-.0000305c0-9.5550232-6.1142273-18.0380554-15.1789246-21.0596008l-8.8210754-2.9403687v-56l-24-8-24-24h40l40-48v-16l-8-16h-16l-8 24-24 24-24-16h-16z" fill="#fac8b2"/><g><path d="m71.178894 346.9404297c-9.0646972 3.0214844-15.178894 11.5043945-15.178894 21.0595703h56v-24h-32z" fill="#35495e"/><path d="m208 352h56c0-9.5551758-6.1142578-18.0380859-15.178894-21.0595703l-8.821106-2.9404297h-32z" fill="#35495e"/><path d="m112 264-32 24 32 32 48-24 48 8 32-32-24-8-64 8z" fill="#318406"/><path d="m184 192h-8-24v24c0 8.8364258-7.1634521 16-16 16s-16-7.1635742-16-16v-24h-24v16 32l16 24 40 8 64-8-24-24-8-16z" fill="#feea01"/><g fill="#e6e6e6"><path d="m56 360h56v8h-56z"/><path d="m208 344h56v8h-56z"/></g></g><path d="m392.0000916 168v-32.0000153c0-8.8365479-7.1634216-15.9999847-15.9999695-15.9999847h-.0000305c-8.8365479 0-16 7.1634369-16 15.9999847v32.0000153z" fill="#f48da1"/><path d="m328 104h16v16h-16z" fill="#5b0b3c"/><g><path d="m424 396.265625c.3395996-1.4003906.5300293-2.8305664.5300293-4.265625h-.5300293z" fill="none"/><path d="m384 384c8.8365479 0 16-7.1635742 16-16v-16h-32v16c0 8.8364258 7.1634521 16 16 16z" fill="#fad6c6"/><path d="m408 472v16h40v-4.6865234c0-7.2436523-2.8776855-14.1914063-8-19.3134766h-30z" fill="#f48da1"/><path d="m315.3137207 460.6865234c-7.2441406 7.2436524-11.3137207 17.0688477-11.3137207 27.3134766h32v-16l-16-16z" fill="#f48da1"/><g><path d="m424 408v-11.734375-4.265625h-80v18.6689453l-16 5.3310547v16 16l32 16 8-24h48l-2 8h32.4000244l9.5999756-24z" fill="#ddf216"/></g><path d="m424 360-8-8h-16v16c0 8.8364258-7.1634521 16-16 16s-16-7.1635742-16-16v-16h-32l-25.0986328 14.3417969 15.6486816 23.4780273 19.0599365-6.3598633c.8199463-1.5097656 1.8599854-2.9301758 3.1400146-4.2099609l3.2500001-3.25-3.25 3.25c-1.2800293 1.2797852-2.3200684 2.7001953-3.1400146 4.2099609-3.670044 6.8300782-2.6199952 15.5302735 3.1400146 21.2900391 1.1899414 1.1899414 2.5100098 2.2099609 3.9199219 3.0297852 3 1.7602539 6.4001465 2.6601563 9.8100586 2.6601563 3.7299805 0 7.4799805-1.0698242 10.7600098-3.2597656 3.2600097-2.1801759 7.0100097-3.260254 10.7600097-3.260254s7.5 1.0800781 10.7600098 3.2602539c3.2800293 2.1899414 7.0300293 3.2597656 10.7600098 3.2597656 5.0100097 0 9.9799804-1.9399414 13.7299804-5.6899414 2.4266357-2.4267578 3.9962158-5.3754883 4.75-8.484375v-4.265625h.5300293c0-4.6201172-1.7600098-9.2299805-5.2800293-12.75l-3.25-3.25 3.25 3.25c3.5200195 3.5200195 5.2800293 8.1298828 5.2800293 12.75h23.4699707v-32z" fill="#f249b4"/><g fill="#efeeef"><path d="m304 480h32v8h-32z"/><path d="m408 480h40v8h-40z"/></g></g><g><g><path d="m304 288h-20.0000305c-11.0456848 0-19.9999695-8.9542847-19.9999695-19.9999695v-.000061c0-11.0456848 8.9542847-19.9999695 19.9999695-19.9999695h20.0000305z" fill="#eaaa94"/><path d="m448 248h20.0000305c11.0456848 0 19.9999695 8.9542847 19.9999695 19.9999695v.000061c0 11.0456848-8.9542847 19.9999695-19.9999695 19.9999695h-20.0000305z" fill="#eaaa94"/><path d="m280 248c0-9.5400391 1.3901367-18.75 3.9799805-27.4400024 4.6101074-15.4800415 13.0100098-29.3200073 24.1401367-40.4400024 17.369873-17.380005 41.369873-28.1199952 67.8798828-28.1199952s50.5100098 10.7399902 67.8798828 28.1199951c11.130127 11.1199951 19.5300293 24.9599609 24.1401367 40.4400024 2.5898438 8.6900025 3.9799805 17.8999634 3.9799805 27.4400025z" fill="#fbc6ea"/><path d="m458.0500488 240.1099854c-.0100098-.0100098-.0100098-.0100098-.0100098-.0100098-12.7800292-32.8299561-44.6899413-56.0999756-82.040039-56.0999756-37.8901367 0-70.1899414 23.9499512-82.5800781 57.5400391-3.5100098 9.4899902-5.4199219 19.75-5.4199219 30.4599609 0 48.5999756 39.3999023 88 88 88s88-39.4000244 88-88c0-11.25-2.1098633-22-5.9499512-31.8900146z" fill="#fad6c6"/><path d="m336 312c0 12.1099854-8.9799805 22.1300049-20.6499023 23.7600098-10.630127-10.1100464-18.7299805-22.8500366-23.25-37.1700439 4.3098144-6.3899537 11.619873-10.5899659 19.8999023-10.5899659 13.25 0 24 10.75 24 24z" fill="#f48da1"/><path d="m459.8999023 298.5899658c-4.5200195 14.3200073-12.619873 27.0599976-23.25 37.1700439-11.6699218-1.6300048-20.6499023-11.6500243-20.6499023-23.7600097 0-13.25 10.75-24 24-24 8.2800293 0 15.5900879 4.2000122 19.8999023 10.5899658z" fill="#f48da1"/><path d="m464 246.3983307c-6.2651978-8.1862946-14.1124268-14.7264557-22.9006348-19.2867279-9.3762817-4.8828888-19.8323975-7.5189514-30.5985718-7.5189514l-17.1060486-17.7963257-17.1060486 17.7963257h-25.6590881c-23.905548 0-46.5605773 10.3996887-62.6296081 28.4073486 13.2466431-37.3611145 47.7792664-64 88.2886963-64 39.9320373 0 74.047821 25.8824768 87.7113037 62.3983307z" fill="#b71e71"/><path d="m416 248h16v16h-16z" fill="#5b0b3c"/><path d="m320 248h16v16h-16z" fill="#5b0b3c"/><path d="m391.9999695 272c-10.0722351 5.0361328-21.9277344 5.0361328-31.9999695 0h-.0000305v8.0000305c0 8.8365479 7.1634521 15.9999695 16 15.9999695h.0000305c8.8365479 0 15.9999695-7.1634216 15.9999695-15.9999695z" fill="#e22526"/></g></g><g><path d="m216 87.9999237h14.2223206c9.8183441 0 17.7776794 8.9542923 17.7776794 19.9999771v.0000458c0 11.0456772-7.9593353 19.9999771-17.7776794 19.9999771h-14.2223206z" fill="#eaaa94"/><path d="m56 87.9999237h-14.2223206c-9.8183403 0-17.7776794 8.9542923-17.7776794 19.9999771v.0000458c0 11.0456772 7.9593391 19.9999771 17.7776794 19.9999771h14.2223206z" fill="#eaaa94"/><circle cx="136" cy="112" fill="#fac8b2" r="88"/><path d="m96 152c0 12.1098633-8.9799805 22.1298828-20.6500244 23.7600098-10.6300049-10.1101074-18.7299805-22.8500977-23.25-37.170166 4.3099975-6.3898926 11.6199951-10.5898438 19.9000244-10.5898438 13.25 0 24 10.75 24 24z" fill="#f48da1"/><path d="m219.9000244 138.5898438c-4.5200195 14.3200684-12.6199951 27.0600586-23.25 37.170166-11.6700439-1.630127-20.6500244-11.6501465-20.6500244-23.7600098 0-13.25 10.75-24 24-24 8.2800293 0 15.5900269 4.1999512 19.9000244 10.5898438z" fill="#f48da1"/><path d="m200 104v-32h-24v-16l-40 8-40-8v16h-24v32h-23.6400146c4.040039-44.8500977 41.7399902-80 87.6400146-80s83.5999756 35.1499023 87.6400146 80z" fill="#683b11"/><path d="m52.0999985 138.5899963c4.3100013-6.3899994 11.6200027-10.5899963 19.9000015-10.5899963 13.25 0 24 10.75 24 24 0 12.1100006-8.9800034 22.1300049-20.6500015 23.7599945" fill="#f48da1"/><path d="m196.6499939 175.7599945c-11.6699982-1.6299896-20.6499939-11.6499939-20.6499939-23.7599945 0-13.25 10.75-24 24-24 8.2799988 0 15.5899963 4.1999969 19.8999939 10.5899963" fill="#f48da1"/><path d="m160 88h16v16h-16z" fill="#683b11"/><path d="m96 88h16v16h-16z" fill="#683b11"/><path d="m136 123.7529297c-6.7241211 0-13.4482422-1.5332031-19.5776367-4.5976563l7.1552734-14.3105469c7.7783203 3.8886719 17.0664063 3.8886719 24.8447266 0l7.1552734 14.3105469c-6.1293945 3.0644532-12.8535156 4.5976563-19.5776367 4.5976563z" fill="#f0615f"/></g></g><g><path d="m416 248h16v16h-16z"/><path d="m320 248h16v16h-16z"/><path d="m396.2060547 265.1943359c-2.359375-1.4580078-5.3037109-1.5888672-7.7836914-.3496094-7.7783203 3.8886719-17.0664063 3.8886719-24.8447266 0-2.4799805-1.2392578-5.425293-1.1083984-7.7836914.3496094s-3.7939453 4.0332032-3.7939453 6.8056641v8c0 13.2333984 10.7661133 24 24 24s24-10.7666016 24-24v-8c0-2.7724609-1.4355469-5.3476562-3.7939453-6.8056641zm-20.2060547 22.8056641c-3.2988281 0-6.1376953-2.0068359-7.3598633-4.8642578 4.8681641.8222656 9.8515625.8222656 14.7197266 0-1.222168 2.8574219-4.0610352 4.8642578-7.3598633 4.8642578z"/><path d="m159 88h16v16h-16z"/><path d="m96 88h16v16h-16z"/><path d="m155.5776367 119.1552734-7.1552734-14.3105469c-7.7783203 3.8886719-17.0664063 3.8886719-24.8447266 0l-7.1552734 14.3105469c6.1293945 3.0644531 12.8535156 4.5976563 19.5776367 4.5976563s13.4482422-1.5332031 19.5776367-4.5976563z"/><path d="m491.5776367 336.8447266-16-8c-3.6088867-1.8046875-7.9960938-.6386719-10.2338867 2.7177734l-13.625 20.4375h-22.7154541c19.5899658-13.0224609 34.1459961-33.0380859 40.0722656-56.4580078h1.1466064c13.9614258 0 25.3203125-12.3554688 25.3203125-27.5419922 0-11.4775391-6.4898682-21.3330078-15.685791-25.4650879-2.4274902-46.6608887-35.7541503-85.2766113-79.8566894-95.7346191v-3.8129883c13.786377-3.5612793 24-16.1040039 24-30.9873047 0-17.6445313-14.3549805-32-32-32h-32c-8.8222656 0-16-7.1777344-16-16 0-3.0302734-1.7119141-5.7998047-4.4223633-7.1552734-2.7094727-1.3564453-5.953125-1.0644531-8.3774414.7548828l-23.4672852 17.6005859c-7.3466796 5.5107422-11.7329101 14.2832031-11.7329101 23.4667969 0 16.1738281 13.1591797 29.3330078 29.3334961 29.3330078h4.0375977c3.3017578 9.3125 12.1987305 16 22.6289063 16v2.800293c-44.1025391 10.4580078-77.4291992 49.0737305-79.8566895 95.7346191-9.1959229 4.1320801-15.685791 13.9875488-15.685791 25.4650879 0 15.1865234 11.3588867 27.5419922 25.3203125 27.5419922h1.1466064c5.7813721 22.847168 19.776001 42.4541016 38.6446533 55.4897461l-45.5383301 26.0219727c-1.925293 1.1005859-3.3071289 2.9501953-3.8168945 5.1083984-.5092773 2.1582031-.1000977 4.4306641 1.1298828 6.2753906l32 48c1.4833984 2.2255859 3.9814453 3.5625 6.65625 3.5625h8v4.6865234l-10.34375 10.34375c-8.8061523 8.8066407-13.65625 20.515625-13.65625 32.9697266 0 4.4179688 3.581543 8 8 8h32c4.418457 0 8-3.5820313 8-8v-10.234375l18.5297852-6.1757813c2.3886719-.796875 4.2631836-2.6708984 5.0595703-5.0595703l6.1767578-18.5302734h31.987793l-5.5151367 22.0595703c-.1586915.6347656-.2387696 1.2861328-.2387696 1.9404297v16c0 4.4179688 3.581543 8 8 8h40c4.418457 0 8-3.5820313 8-8v-4.6865234c0-7.5898438-2.3779297-14.8134766-6.7807617-20.8203125l14.2084961-35.5224609c1.5454102-3.8623047-.128418-8.265625-3.8500977-10.1259766l-27.5776367-13.7890625v-3.0556641h32c2.5180664 0 4.8891602-1.1855469 6.3999023-3.2001953l24-32c1.0385743-1.3847656 1.6000977-3.0693359 1.6000977-4.7998047v-16c0-3.0302734-1.7119141-5.7998047-4.4223633-7.1552734zm-99.5776367 29.8144531v1.3408203c0 4.4111328-3.5888672 8-8 8s-8-3.5888672-8-8c5.4509277 0 10.7946777-.4638672 16-1.3408203zm-16-14.6591797c-16.7958984 0-32.3913574-5.2138672-45.2756348-14.0922852 8.0749512-5.8706054 13.2756348-15.3935546 13.2756348-25.9077148 0-17.6445313-14.3549805-32-32-32-5.3647461 0-10.5422363 1.3417969-15.123291 3.7998047-.5720215-3.8520508-.876709-7.7910156-.876709-11.7998047 0-9.1870117 1.576416-18.0085449 4.4396973-26.2321777 13.4494629-13.7607422 32.1273193-21.7678223 51.5603027-21.7678223h24c2.121582 0 4.1567383-.8427734 5.6567383-2.3427734l10.3432617-10.34375 10.3432617 10.34375c1.5 1.5 3.5351563 2.3427734 5.6567383 2.3427734 16.5551758 0 32.4035645 7.4726563 42.9764404 20.1132813 3.2420655 8.6882324 5.0235596 18.0820312 5.0235596 27.8867187 0 4.0087891-.3046875 7.9472656-.876709 11.7998047-4.5811767-2.4580078-9.7585449-3.7998047-15.123291-3.7998047-17.6450195 0-32 14.3554688-32 32 0 10.5136719 5.2009277 20.0371094 13.2757568 25.9072266-12.8842773 8.8789062-28.4796142 14.0927734-45.2757568 14.0927734zm-54.489624-138.4990234c14.2958984-13.3251953 33.4512939-21.5009766 54.489624-21.5009766 4.1621094 0 8.2504883.3212891 12.243042.9370117-.6827393.3632813-1.324585.8305664-1.8997803 1.4057617l-13.6572265 13.6572266h-20.6860352c-10.5008545 0-20.8210449 1.9147949-30.489624 5.5009766zm77.069458-18.2351075c10.6721191 3.145752 20.4233398 8.4519043 28.7404785 15.4255371-5.1650391-1.449707-10.5019531-2.3500977-15.925293-2.6103516zm35.5595703 131.6013184c-5.9707031-2.3637695-10.1394043-8.2128906-10.1394043-14.8671875 0-8.8222656 7.1777344-16 16-16 4.0651855 0 7.9145508 1.5429688 10.8371582 4.2392578-3.7783203 9.9794922-9.4997559 19.0043945-16.6977539 26.6279297zm37.4956055-46.5419922c.2368164-2.7446289.3649902-5.5200195.3649902-8.3251953 0-5.4506836-.463623-10.7949219-1.3406982-16h1.3406982c.2716064 0 .5400391-.0141602.8046875-.0405273 4.3953857 1.3984375 7.652832 6.2587891 7.652832 12.0405273 0 6.2841797-3.8464355 11.4829102-8.8225097 12.3251953zm-127.6350098-160.3251953v-16h-16v8h-2.6665039c-7.3520508 0-13.3334961-5.9814453-13.3334961-13.3330078 0-4.1748047 1.9941406-8.1621094 5.3330078-10.6669922l13.7456055-10.3095703c5.140625 10.8144531 16.1723633 18.3095703 28.9213867 18.3095703h32c8.8222656 0 16 7.1777344 16 16 0 6.6435547-4.0717773 12.3513184-9.8496094 14.7668457-3.6247558-8.6633301-12.1871338-14.7668457-22.1503906-14.7668457-10.4293213 0-19.3212891 6.6889648-22.6237793 16h-1.3762207c-4.4111328 0-8-3.5888672-8-8zm24 16c0-4.4111328 3.5888672-8 8-8s8 3.5888672 8 8v8.3046875c-2.640625-.2016602-5.3085937-.3046875-8-.3046875s-5.359375.1030273-8 .3046875zm8 24c42.1555176 0 77.4821777 29.7932129 86.0279541 69.4306641-15.7178955-31.6350098-48.3728027-53.4306641-86.0279541-53.4306641-37.6279297 0-70.2631836 21.7641602-85.9938965 53.3620605 8.5750733-39.5998535 43.8652344-69.3620605 85.9938965-69.3620605zm-104.4575195 108c0-5.7817383 3.2574463-10.6420898 7.652832-12.0405273.2646484.0263671.5330811.0405273.8046875.0405273h1.3406982c-.8770752 5.2050781-1.3406982 10.5493164-1.3406982 16 0 2.8051758.1281738 5.5805664.3649902 8.3251953-4.9760742-.8422851-8.8225097-6.0410156-8.8225097-12.3251953zm29.6203613 32.2397461c2.9228516-2.6967773 6.7722168-4.2397461 10.8371582-4.2397461 8.8222656 0 16 7.1777344 16 16 0 6.6542969-4.1688232 12.503418-10.1391602 14.8671875-7.197998-7.6230469-12.9195556-16.6479492-16.697998-26.6274414zm58.8371582 66.4194336v1.3408203c0 13.2333984 10.7661133 24 24 24s24-10.7666016 24-24v-5.4912109c1.7525635-.6210938 3.4841309-1.2875977 5.1884766-2.0063477l5.1547852 5.1547852c1.4999999 1.5 3.5351562 2.3427734 5.6567382 2.3427734h16v16h-8.7231445c-1.2487793-3.8823242-3.404541-7.440918-6.3710938-10.4072266l-3.2485352-3.2490234-11.3144531 11.3125 3.2490234 3.25c1.3806152 1.3803711 2.3027344 3.0947266 2.7052002 4.9584961-.1883544.6806641-.296997 1.3945312-.296997 2.1352539v3.2026367c-.4868164 1.4487305-1.2961426 2.7797852-2.4086914 3.8920898-3.8300781 3.8291016-9.8828125 4.4287109-14.3896484 1.4248047-9.2353516-6.1572266-21.168457-6.1572266-30.402832 0-4.5083008 3.0048828-10.5610352 2.4052734-14.390625-1.4257813-1.8950195-1.8945313-2.9384766-4.4140625-2.9384766-7.09375s1.043457-5.1992188 2.9389648-7.0947266l3.2485352-3.2490234-11.3144531-11.3125-3.2480469 3.2480469c-.9956055.9956055-1.8955078 2.0605469-2.7058105 3.1787109l-10.5769043 3.5258789-7.5048828-11.2578125 15.6140137-8.921875c6.972412 3.0244142 14.3708495 5.2436525 22.0788573 6.5424806zm-26.9404297 39.2211914-2.9404297-8.8208008 5.5529785-1.8505859c.3820801 3.1264648 1.3171387 6.1254883 2.7644043 8.8789063zm-16.7783203 18.1196289-24.8706055-37.3066406 16.9716797-9.6977539 6.1291504 9.1933594c-2.1896973 2.0712891-3.1169434 5.2929688-2.1008301 8.3413086l7.5893555 22.7675781v6.7021484zm-3.2314453 56c1.2587891-4.6855469 3.6381836-9.0043945 6.9816895-12.6547852l7.9685058 7.96875v4.6860352zm102.9501953 0v-7.015625l.2460938-.984375h20.0950928c1.7279053 2.3798828 2.8796387 5.1044922 3.3775635 8zm29.8383789-52.1367187-11.2543945 28.1367187h-14.3377686l3.5150146-14.0595703c.597168-2.3896484.0605469-4.921875-1.4555664-6.8632813-1.5161132-1.9423828-3.8422851-3.0771484-6.305664-3.0771484h-48c-3.4433594 0-6.5004883 2.203125-7.5893555 5.4697266l-6.7353516 20.2060547-15.5145264 5.1708984-6.8468017-6.8466797 2.3427734-2.3427734c1.5004884-1.5009766 2.3432618-3.5351563 2.3432618-5.6572266v-16-10.2333984l16.1563721-5.3857422c8.2110596 3.3227539 17.8018799 2.5966797 25.5179443-2.5488281 3.8427734-2.5625 8.809082-2.5625 12.6518555 0 4.6171875 3.078125 9.9086914 4.5830078 15.1733398 4.5830078 4.8720703 0 9.7214355-1.2880859 13.9924316-3.8095703.2956543.2011719.6048584.3867188.9304199.5498047zm34.1616211-70.5302735-20 26.6669922h-4v-16c2.6748047 0 5.1728516-1.3369141 6.65625-3.5625l12.0825195-18.1240234 5.2612305 2.6308593z"/><path d="m251.3510742 323.3505859-3.3510742-1.1162109v-50.234375c0-3.4433594-2.2036133-6.5009766-5.4702148-7.5898438l-22.2084961-7.4023438-9.0078125-9.0078124h20.6865234c2.3740234 0 4.6259766-1.0546875 6.1455078-2.8789063l40-48c1.1982422-1.4374999 1.8544922-3.2499999 1.8544922-5.1210937v-16c0-1.2421875-.2890625-2.4667969-.8447266-3.578125l-8-16c-1.3549804-2.7099609-4.125-4.421875-7.1552734-4.421875h-16c-3.4433594 0-6.5004883 2.203125-7.5893555 5.4697266l-7.402832 22.2089844-18.0273438 18.0273438-17.7442627-11.829834c15.4174805-12.8015137 26.7765503-30.3269043 31.8393555-50.3342285h1.1466064c13.9614258 0 25.3203125-12.3554688 25.3203125-27.5419922s-11.3588867-27.5419922-25.3203125-27.5419922h-3.5515137c-13.0781249-37.4865724-48.7812499-64.4580079-90.6706542-64.4580079s-77.5925293 26.9714355-90.6706543 64.4580078h-3.5515137c-13.9614258 0-25.3203125 12.3554688-25.3203125 27.5419922s11.3588867 27.5419922 25.3203125 27.5419922h1.1466064c1.4472656 5.7194824 3.4100342 11.2348633 5.8343506 16.4963379-.2499999-.0236817-.5026244-.0383301-.758789-.0383301h-16c-3.0302734 0-5.800293 1.7119141-7.1552734 4.421875l-8 16c-.5556641 1.1113281-.8447266 2.3359375-.8447266 3.578125v24c0 1.4501953.394043 2.8730469 1.1401367 4.1162109l24 40c1.4458008 2.4091797 4.0498047 3.8837891 6.8598633 3.8837891h43.71875l9.4267578 14.140625-25.9453125 19.4589844c-2.0146484 1.5117187-3.2001953 3.8828125-3.2001953 6.4003906v50.234375l-3.3510742 1.1162109c-12.350586 4.1171875-20.6489258 15.6308594-20.6489258 28.6494141 0 4.4179688 3.581543 8 8 8h56c4.418457 0 8-3.5820313 8-8v-43.0556641l41.2509766-20.6259766 38.7490234 6.4589845v41.2226562c0 4.4179688 3.581543 8 8 8h56c4.418457 0 8-3.5820313 8-8 0-13.0185547-8.2983398-24.5322266-20.6489258-28.6494141zm-35.3510742-3.3505859v-13.3334961l16-21.3334961v34.6669922zm-99.1820068-63.1948242-12.8179932-19.2270508v-29.578125-5.4909668c2.6176758.9282227 5.2843018 1.7519531 8 2.4533691v11.0375977c0 13.2333984 10.7661133 24 24 24s24-10.7666016 24-24v-11.0375977c5.5426025-1.4316406 10.8903198-3.3515625 16-5.703125v.7407227 24c0 1.2421875.2890625 2.4667969.8447266 3.578125l8 16 .0102539-.005127c.3780518.7565918.8688965 1.4648438 1.4882813 2.0842285l12.4331665 12.4331055-46.4805298 5.8100586zm-38.9572144-89.9379883c-7.197998-7.623291-12.9194946-16.6481934-16.697876-26.6276855 2.9227906-2.6965332 6.7721558-4.239502 10.8370972-4.239502 8.8222656 0 16 7.1777344 16 16 0 6.6542969-4.1688232 12.503418-10.1392212 14.8671875zm-5.8607788-46.8671875c-5.3648071 0-10.5421753 1.3415527-15.123291 3.8000488-.5720825-3.852539-.876709-7.7910156-.876709-11.8000488h16c4.418457 0 8-3.5820313 8-8v-24h16c4.418457 0 8-3.5820313 8-8v-6.2412109l30.4311523 6.0859375c1.0488281.2089844 2.128418.2060547 3.1762695-.0078125l29.3925782-6.0292969v6.1923828c0 4.4179688 3.581543 8 8 8h17v24c0 4.4179688 3.581543 8 8 8h16c0 4.0090332-.3046265 7.9475098-.876709 11.7998047-4.5811767-2.458252-9.7585449-3.7998047-15.123291-3.7998047-17.6450195 0-32 14.3554688-32 32 0 10.513916 5.2009277 20.0371094 13.2757568 25.9074707-12.8842773 8.8786621-28.4796753 14.0925293-45.2757568 14.0925293-16.7959595 0-32.3912964-5.2138672-45.2755737-14.0925293 8.0748291-5.8703613 13.2755737-15.3935547 13.2755737-25.9074707 0-17.6445312-14.3549805-32-32-32zm-14.3901367-24c1.3478393-6.6135254 3.5160522-12.9311523 6.3901367-18.8457031v18.8457031zm150.3901367-18.8457031c2.8740845 5.9145508 5.0422974 12.2321777 6.3901367 18.8457031h-6.3901367zm-80 130.5095215c2.6387329.21875 5.3057861.3361816 8 .3361816s5.3612671-.1174316 8-.3361816v8.3361816c0 4.4111328-3.5888672 8-8 8s-8-3.5888672-8-8zm93.6567383 5.9934082 24-24c.878418-.8789063 1.5400391-1.9492188 1.9326172-3.1269531l6.1767578-18.5302735h5.2895508l4.9443359 9.8886719v11.2148438l-35.7470703 42.8964843h-31.3085938l-4.9443359-9.8886719v-20.496582l19.5624695 13.0415039c3.1723938 2.1152344 7.3979797 1.6972656 10.0942688-.9990234zm-27.517395-46.7902832c-5.9705811-2.3637696-10.1393433-8.2126465-10.1393433-14.8669434 0-8.8222656 7.1777344-16 16-16 4.0651245 0 7.9144897 1.5429688 10.8372192 4.2392578-3.7783813 9.9794922-9.4998169 19.0046387-16.6978759 26.6276856zm46.3181762-58.8669434c0 6.2841797-3.8464966 11.4829102-8.8225708 12.3251953.2369385-2.744873.3650513-5.5200195.3650513-8.3251953 0-5.6027832-.4875488-11.0932617-1.4130859-16.4355469 5.4743652.2365723 9.8706054 5.7163086 9.8706054 12.4355469zm-104.4575195-76c26.1164551 0 49.3463745 12.5822754 63.9564209 32h-16.9564209v-8c0-2.4033203-1.0805664-4.6796875-2.9433594-6.1992188-1.8623047-1.5195313-4.3085938-2.1191406-6.6640625-1.6376953l-37.4125977 7.6748047-38.4111328-7.6826172c-2.3491211-.4697266-4.7871094.1386719-6.640625 1.6582031s-2.9282226 3.7900391-2.9282226 6.1865235v8h-15.9564209c14.6100464-19.4177246 37.8399658-32 63.9564209-32zm-104.4575195 76c0-6.7192383 4.3962402-12.1989746 9.8706055-12.4355469-.9255372 5.3422852-1.413086 10.8327637-1.413086 16.4355469 0 2.8051758.1281128 5.5803223.3650513 8.3251953-4.9760742-.8422851-8.8225708-6.0410156-8.8225708-12.3251953zm56.4575195 87.1130371v4.8869629h-19.0556641l-12.9443359-25.8886719v-9.1079102c8.1953735 12.3286134 19.1586914 22.6645509 32 30.1096192zm-56 2.6711426v-19.8955078l4.9443359-9.8886719h3.0556641v8c0 1.2421875.2890625 2.4667969.8447266 3.578125l16 32c1.3549804 2.7099609 4.125 4.421875 7.1552734 4.421875h24v16h-35.4707031zm72 138.2158203h-16v-34.6669922l16 21.3334961zm-37.5371094 24c1.7089844-2.5068359 4.2182617-4.4609375 7.2456055-5.4697266l7.5908203-2.5302734h22.7006836v8zm94.8525391-71.8916016c-1.6674805-.2753906-3.3803711-.0195313-4.8930664.7363281l-42.0283813 21.0141602-18.0740967-24.0986328 17.6187744-13.2138672 36.4924927 7.2983398c.5175781.1035157 1.0429687.1552735 1.5688476.1552735.3310547 0 .6625977-.0205078.9921875-.0615234l62.1994019-7.7749023 5.348938 1.7827148-16.0219727 21.362793zm54.6845703 55.8916016v-8h22.7006836l7.5908203 2.5302734c3.0273438 1.0087891 5.5366211 2.9628906 7.2456055 5.4697266z"/></g></g></svg>